<!DOCTYPE svg PUBLIC "-//W3C//DTD SVG 1.1//EN" "http://www.w3.org/Graphics/SVG/1.1/DTD/svg11.dtd">
<!-- Uploaded to: SVG Repo, www.svgrepo.com, Transformed by: SVG Repo Mixer Tools -->
<svg version="1.1" id="Layer_1" xmlns="http://www.w3.org/2000/svg" xmlns:xlink="http://www.w3.org/1999/xlink" viewBox="-51.2 -51.2 614.40 614.40" xml:space="preserve" width="800px" height="800px" fill="#248eff" stroke="#248eff" transform="matrix(-1, 0, 0, 1, 0, 0)" stroke-width="0.00512">
<g id="SVGRepo_bgCarrier" stroke-width="0" transform="translate(0,0), scale(1)">
<path transform="translate(-51.2, -51.2), scale(19.2)" d="M16,31.030141352073237C18.489109727073053,30.461579964316478,18.378097101458856,26.523862291250456,20.213070269172125,24.74853055919869C21.359872730359832,23.639002182672733,23.24199699469882,23.75218221929795,24.51580185770835,22.79112536651775C25.973953660432034,21.690982932542045,27.475511262890063,20.472836117388432,28.136912903011215,18.770171169353922C28.817066695299662,17.019232025643678,28.772331865177467,15.007622202291785,28.23894159280686,13.206541447999648C27.715439878758268,11.438851051582471,26.005705291942295,10.334840013028762,25.154492980204996,8.699535459575745C24.0845538654335,6.644024417057716,24.636820206548492,3.403848840221718,22.580402796069592,2.3356527958970688C20.55112297041154,1.2815532383121437,18.26449273094721,3.6261980772033717,16,3.9442785066716812C14.078582061027983,4.214169169098621,11.884063607672362,3.0155980055380294,10.253442718920944,4.067150849210787C8.585547881205269,5.142740872401274,8.935231308013186,7.829310500919575,7.641624301163857,9.334417805896805C6.280897254254697,10.917619046721263,3.7336606374645394,11.179623664154981,2.6218199489516074,12.946517704131718C1.4485813086163557,14.810982984541049,0.12032000141747368,17.51248491687427,1.3419582853764762,19.34560236870142C2.7815727602647122,21.505801874948364,6.570552667651757,20.279487409455065,8.59316166383921,21.90675646884225C10.025931661401463,23.05947668844283,9.586438845878375,25.4834550675448,10.745485247127764,26.911112312944194C12.166013028321531,28.66084966334389,13.802820526336085,31.532020155209004,16,31.030141352073237" fill="#7ed0ec" strokewidth="0"/>
</g>
<g id="SVGRepo_tracerCarrier" stroke-linecap="round" stroke-linejoin="round" stroke="#CCCCCC" stroke-width="1.024"/>
<g id="SVGRepo_iconCarrier"> <path style="fill:#050505;" d="M0,355.2v-324c0.104-5.704,4.696-10.296,10.4-10.4h491.2c5.704,0.104,10.296,4.696,10.4,10.4v324H0z"/> <path d="M512,355.2v41.6c-0.104,5.704-4.696,10.296-10.4,10.4H10.4c-5.704-0.104-10.296-4.696-10.4-10.4v-41.6H512z"/> <rect x="146.4" y="480.8" style="fill:#050505;" width="219.2" height="10.4"/> <polygon style="fill:#050505;" points="328.8,480.8 183.2,480.8 193.6,407.2 318.4,407.2 "/> <rect x="20.8" y="41.6" width="470.4" height="292.8"/> <polygon style="fill:#050505;" points="318.4,407.2 193.6,407.2 187.792,448.28 320.272,420.424 "/> <rect x="108.992" y="164.072" style="fill:#1e1be4;" width="18.688" height="51.104"/> <g> <rect x="77.856" y="184.96" style="fill:#050505;" width="18.688" height="30.208"/> <rect x="140.136" y="135.672" style="fill:#050505;" width="18.688" height="79.504"/> </g> <rect x="171.28" y="84.568" style="fill:#1e1be4;" width="18.688" height="130.608"/> <rect x="202.416" y="110.92" style="fill:#050505;" width="18.688" height="104.24"/> <g> <rect x="233.6" y="152.88" style="fill:#1e1be4;" width="18.688" height="62.464"/> <path style="fill:#1e1be4;" d="M356.984,86.464c-38.328,0.008-69.392,31.088-69.384,69.416s31.088,69.392,69.416,69.384 c38.304-0.008,69.36-31.048,69.384-69.352h-69.416V86.464z"/> </g> <path style="fill:#ffffff;" d="M417.904,94.992L368.8,144.088h69.4V144C438.208,125.616,430.904,107.984,417.904,94.992z"/> <path style="fill:#5e5e5e;" d="M368.8,74.648v69.456l49.096-49.096C404.896,81.952,387.224,74.616,368.8,74.648z"/> <g> <rect x="99" y="254.984" style="fill:#050505;" width="314" height="8"/> <rect x="156.128" y="294.888" style="fill:#050505;" width="199.744" height="8"/> </g> </g>
</svg>