<!DOCTYPE svg PUBLIC "-//W3C//DTD SVG 1.1//EN" "http://www.w3.org/Graphics/SVG/1.1/DTD/svg11.dtd">
<!-- Uploaded to: SVG Repo, www.svgrepo.com, Transformed by: SVG Repo Mixer Tools -->
<svg version="1.1" id="Layer_1" xmlns="http://www.w3.org/2000/svg" xmlns:xlink="http://www.w3.org/1999/xlink" viewBox="0 0 512 512" xml:space="preserve" width="800px" height="800px" fill="#1a3dea" stroke="#1a3dea" stroke-width="5.632">
<g id="SVGRepo_bgCarrier" stroke-width="0"/>
<g id="SVGRepo_tracerCarrier" stroke-linecap="round" stroke-linejoin="round"/>
<g id="SVGRepo_iconCarrier"> <rect x="240.327" y="386.288" style="fill:#26D9DA;" width="31.347" height="78.932"/> <rect x="170.318" y="449.546" style="fill:#0CA7A6;" width="171.363" height="31.347"/> <rect y="31.107" style="fill:#d1fffa;" width="512" height="386.529"/> <rect y="31.107" style="fill:#d6f3ff;" width="256" height="386.529"/> <rect y="31.107" style="fill:#0CA7A6;" width="512" height="57.95"/> <rect y="31.107" style="fill:#26D9DA;" width="256" height="57.95"/> <circle style="fill:#2328cd;" cx="128" cy="253.346" r="86.026"/> <path style="fill:#6c51f0;" d="M128,167.325c-47.508,0-86.021,38.513-86.021,86.021S80.492,339.367,128,339.367V167.325z"/> <path style="fill:#4b50dd;" d="M41.979,253.346c0,47.508,38.513,86.021,86.021,86.021v-86.021H41.979z"/> <g> <rect x="297.984" y="230.013" style="fill:#70a7ff;" width="42.015" height="109.349"/> <rect x="362.987" y="198.666" style="fill:#70a7ff;" width="42.015" height="140.695"/> <rect x="428.011" y="167.32" style="fill:#70a7ff;" width="42.015" height="172.042"/> </g> <g> <rect x="297.984" y="271.809" style="fill:#321be4;" width="42.015" height="67.553"/> <rect x="362.987" y="240.462" style="fill:#321be4;" width="42.015" height="98.9"/> <rect x="428.011" y="209.115" style="fill:#321be4;" width="42.015" height="130.247"/> </g> </g>
</svg>