<?xml version="1.0" encoding="iso-8859-1"?>
<!-- Uploaded to: SVG Repo, www.svgrepo.com, Generator: SVG Repo Mixer Tools -->
<svg height="800px" width="800px" version="1.1" id="Layer_1" xmlns="http://www.w3.org/2000/svg" xmlns:xlink="http://www.w3.org/1999/xlink" 
	 viewBox="0 0 512 512" xml:space="preserve">
<polygon style="fill:#D5F6F5;" points="449.362,114.383 394.894,81.702 416.681,441.191 449.362,441.191 "/>
<polygon style="fill:#FFFFFF;" points="8.17,114.383 8.17,441.191 416.681,441.191 416.681,81.702 "/>
<polygon style="fill:#FE5F1A;" points="449.362,16.34 416.681,16.34 384,81.702 416.681,114.383 449.362,114.383 "/>
<path style="fill:#FE834D;" d="M8.17,16.34v98.043h408.511V16.34H8.17z M89.872,81.702c-9.024,0-16.34-7.316-16.34-16.34
	s7.316-16.34,16.34-16.34s16.34,7.316,16.34,16.34S98.897,81.702,89.872,81.702z M367.66,81.702c-9.024,0-16.34-7.316-16.34-16.34
	s7.316-16.34,16.34-16.34c9.024,0,16.34,7.316,16.34,16.34S376.684,81.702,367.66,81.702z"/>
<path style="fill:#FFE777;" d="M394.894,277.787V495.66c60.165,0,108.936-48.771,108.936-108.936S455.058,277.787,394.894,277.787z"
	/>
<path style="fill:#FFFFFF;" d="M394.894,277.787c42.115,0,76.255,48.771,76.255,108.936S437.008,495.66,394.894,495.66
	c-60.165,0-108.936-48.771-108.936-108.936S334.728,277.787,394.894,277.787z"/>
<polygon style="fill:#FEDC3D;" points="394.894,315.915 415.703,358.081 462.236,364.842 428.565,397.664 436.513,444.009 
	394.894,422.127 353.273,444.009 361.221,397.664 327.55,364.842 374.084,358.081 "/>
<path d="M89.872,89.872c13.515,0,24.511-10.996,24.511-24.511s-10.996-24.511-24.511-24.511S65.362,51.846,65.362,65.362
	S76.357,89.872,89.872,89.872z M89.872,57.191c4.506,0,8.17,3.665,8.17,8.17s-3.665,8.17-8.17,8.17s-8.17-3.666-8.17-8.17
	C81.702,60.857,85.367,57.191,89.872,57.191z"/>
<path d="M367.66,89.872c13.515,0,24.511-10.995,24.511-24.511s-10.996-24.511-24.511-24.511c-13.515,0-24.511,10.995-24.511,24.511
	S354.144,89.872,367.66,89.872z M367.66,57.191c4.506,0,8.17,3.665,8.17,8.17s-3.665,8.17-8.17,8.17s-8.17-3.666-8.17-8.17
	C359.489,60.857,363.154,57.191,367.66,57.191z"/>
<path d="M283.234,311.335v-25.378h21.272c4.513,0,8.17-3.658,8.17-8.17c0-4.512-3.657-8.17-8.17-8.17h-21.272v-65.362h76.255v43.49
	c0,4.512,3.657,8.17,8.17,8.17c4.513,0,8.17-3.658,8.17-8.17v-51.66c0-4.512-3.657-8.17-8.17-8.17H89.872
	c-4.512,0-8.17,3.658-8.17,8.17v163.404c0,4.512,3.658,8.17,8.17,8.17h166.042c4.513,0,8.17-3.658,8.17-8.17s-3.657-8.17-8.17-8.17
	h-65.276v-65.362h76.255v25.378c0,4.512,3.657,8.17,8.17,8.17C279.577,319.505,283.234,315.847,283.234,311.335z M174.298,204.255
	v65.362H98.043v-65.362H174.298z M174.298,351.319H98.043v-65.362h76.255V351.319z M190.638,269.617v-65.362h76.255v65.362H190.638z
	"/>
<path d="M264.176,433.021H16.34c0-38.035,0-200.036,0-310.468h424.851v133.453c0,4.512,3.657,8.17,8.17,8.17
	c4.513,0,8.17-3.658,8.17-8.17V16.34c0-4.512-3.657-8.17-8.17-8.17H8.17c-2.167,0-4.245,0.861-5.777,2.393
	C0,12.956,0,14.201,0,21.112v13.484v79.774c0,0.025,0,326.822,0,326.822c0,4.512,3.658,8.17,8.17,8.17h256.005
	c4.513,0,8.17-3.658,8.17-8.17C272.346,436.679,268.689,433.021,264.176,433.021z M441.191,24.511v81.702H16.34
	c0-37.941,0-67.957,0-81.702H441.191z"/>
<path d="M394.894,269.617c-64.573,0-117.106,52.533-117.106,117.106S330.322,503.83,394.894,503.83S512,451.296,512,386.723
	S459.466,269.617,394.894,269.617z M394.894,487.489c-55.563,0-100.766-45.203-100.766-100.766s45.203-100.766,100.766-100.766
	S495.66,331.16,495.66,386.723S450.455,487.489,394.894,487.489z"/>
<path d="M470.006,362.316c-0.961-2.958-3.518-5.113-6.596-5.56l-42.281-6.144l-18.908-38.314c-1.377-2.789-4.217-4.555-7.327-4.555
	s-5.95,1.766-7.327,4.555l-18.908,38.314l-42.281,6.144c-3.077,0.447-5.635,2.603-6.596,5.56s-0.159,6.205,2.067,8.375
	l30.596,29.823l-7.222,42.111c-0.526,3.065,0.734,6.164,3.25,7.992c2.515,1.828,5.85,2.069,8.604,0.622l37.818-19.883l37.818,19.883
	c1.196,0.629,2.501,0.938,3.801,0.938c1.694,0,3.38-0.526,4.803-1.56c2.516-1.828,3.777-4.926,3.25-7.992l-7.222-42.111
	l30.596-29.823C470.165,368.521,470.967,365.275,470.006,362.316z M422.861,391.813c-1.926,1.877-2.804,4.582-2.349,7.232
	l5.151,30.027l-26.967-14.178c-1.191-0.625-2.496-0.938-3.802-0.938s-2.611,0.313-3.802,0.938l-26.967,14.178l5.15-30.027
	c0.455-2.65-0.424-5.355-2.349-7.232l-21.817-21.267l30.15-4.38c2.661-0.387,4.962-2.058,6.152-4.47l13.483-27.32l13.483,27.32
	c1.191,2.411,3.49,4.083,6.152,4.47l30.15,4.38L422.861,391.813z"/>
</svg>