<?xml version="1.0" encoding="iso-8859-1"?>
<!-- Uploaded to: SVG Repo, www.svgrepo.com, Generator: SVG Repo Mixer Tools -->
<svg height="800px" width="800px" version="1.1" id="Layer_1" xmlns="http://www.w3.org/2000/svg" xmlns:xlink="http://www.w3.org/1999/xlink" 
	 viewBox="0 0 512 512" xml:space="preserve">
<g transform="translate(1 1)">
	<g>
		<polygon style="fill:#FFDD09;" points="135.533,101.4 186.733,101.4 186.733,75.8 135.533,75.8 		"/>
		<polygon style="fill:#FFDD09;" points="323.267,101.4 374.467,101.4 374.467,75.8 323.267,75.8 		"/>
	</g>
	<path style="fill:#FCC309;" d="M306.2,16.067H203.8c-33.28,0-59.733,26.453-59.733,59.733H178.2c0-14.507,11.093-25.6,25.6-25.6
		h102.4c14.507,0,25.6,11.093,25.6,25.6h34.133C365.933,42.52,339.48,16.067,306.2,16.067"/>
	<polygon style="fill:#FFDD09;" points="476.867,442.733 476.867,169.667 429.08,201.24 429.08,246.467 383,246.467 383,222.573 
		255,272.067 138.947,222.573 138.947,246.467 92.867,246.467 92.867,201.24 33.133,169.667 33.133,442.733 	"/>
	<polygon style="fill:#FFFFFF;" points="7.533,169.667 7.533,442.733 33.133,442.733 33.133,179.907 	"/>
	<polygon style="fill:#FD9808;" points="476.867,179.907 476.867,442.733 502.467,442.733 502.467,169.667 	"/>
	<path style="fill:#FCC309;" d="M79.213,493.933h351.573c25.6,0,46.08-23.04,46.08-51.2H33.133
		C33.133,470.893,53.613,493.933,79.213,493.933"/>
	<path style="fill:#FFFFFF;" d="M33.133,442.733h-25.6c0,28.16,23.04,51.2,51.2,51.2h20.48
		C53.613,493.933,33.133,470.893,33.133,442.733"/>
	<path style="fill:#FD9808;" d="M476.867,442.733c0,28.16-20.48,51.2-46.08,51.2h20.48c28.16,0,51.2-23.04,51.2-51.2H476.867z"/>
	<path style="fill:#FCC309;" d="M430.787,101.4H79.213c-25.6,0-46.08,23.04-46.08,51.2v17.067L80.92,201.24V178.2H127v44.373
		l128,49.493l128-49.493V178.2h46.08v23.04l47.787-31.573V152.6C476.867,124.44,456.387,101.4,430.787,101.4"/>
	<path style="fill:#FFFFFF;" d="M33.133,169.667V152.6c0-28.16,20.48-51.2,46.08-51.2h-20.48c-28.16,0-51.2,23.04-51.2,51.2v17.067
		l68.267,28.16L33.133,169.667z"/>
	<g>
		<path style="fill:#FD9808;" d="M451.267,101.4h-20.48c25.6,0,46.08,23.04,46.08,51.2v17.067l-42.667,28.16l68.267-28.16V152.6
			C502.467,124.44,479.427,101.4,451.267,101.4"/>
		<polygon style="fill:#FD9808;" points="84.333,246.467 109.933,246.467 109.933,178.2 84.333,178.2 		"/>
	</g>
	<polygon style="fill:#FD7308;" points="109.933,246.467 135.533,246.467 135.533,178.2 109.933,178.2 	"/>
	<polygon style="fill:#FD9808;" points="374.467,246.467 400.067,246.467 400.067,178.2 374.467,178.2 	"/>
	<polygon style="fill:#FD7308;" points="400.067,246.467 425.667,246.467 425.667,178.2 400.067,178.2 	"/>
	<path d="M451.267,502.467H58.733C25.453,502.467-1,476.013-1,442.733c0-5.12,3.413-8.533,8.533-8.533h494.933
		c5.12,0,8.533,3.413,8.533,8.533C511,476.013,484.547,502.467,451.267,502.467z M16.92,451.267
		c4.267,19.627,21.333,34.133,41.813,34.133h392.533c20.48,0,37.547-14.507,41.813-34.133H16.92z"/>
	<path d="M135.533,255h-51.2c-5.12,0-8.533-3.413-8.533-8.533V178.2c0-5.12,3.413-8.533,8.533-8.533h51.2
		c5.12,0,8.533,3.413,8.533,8.533v68.267C144.067,251.587,140.653,255,135.533,255z M92.867,237.933H127v-51.2H92.867V237.933z"/>
	<path d="M425.667,255h-51.2c-5.12,0-8.533-3.413-8.533-8.533V178.2c0-5.12,3.413-8.533,8.533-8.533h51.2
		c5.12,0,8.533,3.413,8.533,8.533v68.267C434.2,251.587,430.787,255,425.667,255z M383,237.933h34.133v-51.2H383V237.933z"/>
	<path d="M255,280.6c-0.853,0-2.56,0-3.413-0.853L132.12,230.253c-3.413-0.853-5.12-4.267-5.12-7.68v-35.84H92.867v14.507
		c0,2.56-1.707,5.12-3.413,6.827c-2.56,1.707-5.12,1.707-7.68,0.853l-76.8-31.573C0.707,176.493-1,173.08-1,169.667V152.6
		c0-33.28,26.453-59.733,59.733-59.733h392.533c33.28,0,59.733,26.453,59.733,59.733v17.067c0,3.413-1.707,6.827-5.12,7.68
		l-76.8,31.573c-2.56,0.853-5.973,0.853-7.68-0.853c-2.56-1.707-3.413-4.267-3.413-6.827v-14.507h-34.133v35.84
		c0,3.413-1.707,6.827-5.12,7.68l-119.467,49.493C257.56,280.6,255.853,280.6,255,280.6z M144.067,216.6L255,262.68l110.933-46.08
		v-38.4c0-5.12,3.413-8.533,8.533-8.533h51.2c5.12,0,8.533,3.413,8.533,8.533v10.24l59.733-24.747V152.6
		c0-23.893-18.773-42.667-42.667-42.667H58.733c-23.893,0-42.667,18.773-42.667,42.667v11.093L75.8,188.44V178.2
		c0-5.12,3.413-8.533,8.533-8.533h51.2c5.12,0,8.533,3.413,8.533,8.533V216.6z M502.467,169.667L502.467,169.667L502.467,169.667z"
		/>
	<path d="M502.467,451.267H7.533c-5.12,0-8.533-3.413-8.533-8.533V169.667c0-2.56,1.707-5.12,3.413-6.827
		c2.56-1.707,5.12-1.707,7.68-0.853l76.8,31.573c4.267,1.707,5.973,4.267,5.973,7.68v36.693H127v-15.36
		c0-2.56,1.707-5.12,3.413-6.827c2.56-1.707,5.12-1.707,7.68-0.853L255,262.68l116.053-47.787c2.56-0.853,5.973-0.853,7.68,0.853
		c2.56,1.707,3.413,4.267,3.413,6.827v15.36h34.133V201.24c0-3.413,1.707-6.827,5.12-7.68l76.8-31.573
		c2.56-0.853,5.973-0.853,7.68,0.853c2.56,1.707,3.413,4.267,3.413,6.827v273.067C511,447.853,507.587,451.267,502.467,451.267z
		 M16.067,434.2h477.867V182.467L434.2,207.213v39.253c0,5.12-3.413,8.533-8.533,8.533h-51.2c-5.12,0-8.533-3.413-8.533-8.533
		v-11.093l-107.52,44.373c-1.707,0.853-4.267,0.853-6.827,0l-107.52-44.373v11.093c0,5.12-3.413,8.533-8.533,8.533h-51.2
		c-5.12,0-8.533-3.413-8.533-8.533v-39.253l-59.733-24.747V434.2z"/>
	<path d="M186.733,109.933h-51.2c-5.12,0-8.533-3.413-8.533-8.533V75.8c0-5.12,3.413-8.533,8.533-8.533h51.2
		c5.12,0,8.533,3.413,8.533,8.533v25.6C195.267,106.52,191.853,109.933,186.733,109.933z M144.067,92.867H178.2v-8.533h-34.133
		V92.867z"/>
	<path d="M374.467,109.933h-51.2c-5.12,0-8.533-3.413-8.533-8.533V75.8c0-5.12,3.413-8.533,8.533-8.533h51.2
		c5.12,0,8.533,3.413,8.533,8.533v25.6C383,106.52,379.587,109.933,374.467,109.933z M331.8,92.867h34.133v-8.533H331.8V92.867z"/>
	<path d="M365.933,84.333H331.8c-5.12,0-8.533-3.413-8.533-8.533c0-9.387-7.68-17.067-17.067-17.067H203.8
		c-9.387,0-17.067,7.68-17.067,17.067c0,5.12-3.413,8.533-8.533,8.533h-34.133c-5.12,0-8.533-3.413-8.533-8.533
		c0-37.547,30.72-68.267,68.267-68.267h102.4c37.547,0,68.267,30.72,68.267,68.267C374.467,80.92,371.053,84.333,365.933,84.333z
		 M339.48,67.267h17.067C352.28,43.373,331.8,24.6,306.2,24.6H203.8c-25.6,0-46.08,18.773-50.347,42.667h17.067
		c3.413-14.507,17.067-25.6,33.28-25.6h102.4C322.413,41.667,335.213,52.76,339.48,67.267z"/>
</g>
</svg>