<?xml version="1.0" encoding="iso-8859-1"?>
<!-- Uploaded to: SVG Repo, www.svgrepo.com, Generator: SVG Repo Mixer Tools -->
<svg height="800px" width="800px" version="1.1" id="Layer_1" xmlns="http://www.w3.org/2000/svg" xmlns:xlink="http://www.w3.org/1999/xlink" 
	 viewBox="0 0 512 512" xml:space="preserve">
<g transform="translate(1 1)">
	<g>
		<path style="fill:#FFDD09;" d="M425.667,58.733h-23.04c7.68,0,14.507,7.68,14.507,17.067v409.6
			c0,9.387-6.827,17.067-14.507,17.067h23.04c9.387,0,17.067-7.68,17.067-17.067V75.8C442.733,66.413,435.053,58.733,425.667,58.733
			"/>
		<polygon style="fill:#FFDD09;" points="220.867,84.333 272.067,84.333 272.067,33.133 220.867,33.133 		"/>
		<path style="fill:#FFDD09;" d="M272.067,33.133c0-14.507-11.093-25.6-25.6-25.6c-14.507,0-25.6,11.093-25.6,25.6H272.067z"/>
		<path style="fill:#FFDD09;" d="M377.027,58.733H267.8v25.6h-43.52v-25.6H115.907c-7.68,0-14.507,7.68-14.507,17.067v409.6
			c0,9.387,6.827,17.067,14.507,17.067h261.12c7.68,0,14.507-7.68,14.507-17.067V75.8C391.533,66.413,384.707,58.733,377.027,58.733
			"/>
	</g>
	<path style="fill:#FFFFFF;" d="M101.4,485.4V75.8c0-9.387,6.827-17.067,14.507-17.067h-23.04c-9.387,0-17.067,7.68-17.067,17.067
		v409.6c0,9.387,7.68,17.067,17.067,17.067h23.04C108.227,502.467,101.4,494.787,101.4,485.4"/>
	<g>
		<path style="fill:#FD9808;" d="M400.067,58.733h-23.04c7.68,0,14.507,7.68,14.507,17.067v409.6
			c0,9.387-6.827,17.067-14.507,17.067h23.04c9.387,0,17.067-7.68,17.067-17.067V75.8C417.133,66.413,409.453,58.733,400.067,58.733
			"/>
		<path style="fill:#FD9808;" d="M340.333,212.333c0-52.053-41.813-93.867-93.867-93.867S152.6,160.28,152.6,212.333
			s41.813,93.867,93.867,93.867S340.333,264.387,340.333,212.333"/>
	</g>
	<path style="fill:#FCC309;" d="M314.733,212.333c0-52.053-36.693-93.867-81.067-93.867S152.6,160.28,152.6,212.333
		s36.693,93.867,81.067,93.867S314.733,264.387,314.733,212.333"/>
	<g>
		<path style="fill:#54C9FD;" d="M246.467,203.8c-14.507,0-25.6-11.093-25.6-25.6c0-14.507,11.093-25.6,25.6-25.6
			c14.507,0,25.6,11.093,25.6,25.6C272.067,192.707,260.973,203.8,246.467,203.8"/>
		<path style="fill:#54C9FD;" d="M246.467,203.8c-23.893,0-42.667,18.773-42.667,42.667v49.493
			c12.8,6.827,27.307,10.24,42.667,10.24s29.867-3.413,42.667-10.24v-49.493C289.133,222.573,270.36,203.8,246.467,203.8"/>
	</g>
	<path d="M246.467,212.333c-18.773,0-34.133-15.36-34.133-34.133s15.36-34.133,34.133-34.133S280.6,159.427,280.6,178.2
		S265.24,212.333,246.467,212.333z M246.467,161.133c-9.387,0-17.067,7.68-17.067,17.067s7.68,17.067,17.067,17.067
		s17.067-7.68,17.067-17.067S255.853,161.133,246.467,161.133z"/>
	<path d="M246.467,314.733c-56.32,0-102.4-46.08-102.4-102.4s46.08-102.4,102.4-102.4s102.4,46.08,102.4,102.4
		S302.787,314.733,246.467,314.733z M246.467,127c-46.933,0-85.333,38.4-85.333,85.333s38.4,85.333,85.333,85.333
		s85.333-38.4,85.333-85.333S293.4,127,246.467,127z"/>
	<path d="M237.933,365.933h-51.2c-5.12,0-8.533-3.413-8.533-8.533s3.413-8.533,8.533-8.533h51.2c5.12,0,8.533,3.413,8.533,8.533
		S243.053,365.933,237.933,365.933z"/>
	<path d="M152.6,365.933H127c-5.12,0-8.533-3.413-8.533-8.533s3.413-8.533,8.533-8.533h25.6c5.12,0,8.533,3.413,8.533,8.533
		S157.72,365.933,152.6,365.933z"/>
	<path d="M314.733,365.933h-42.667c-5.12,0-8.533-3.413-8.533-8.533s3.413-8.533,8.533-8.533h42.667c5.12,0,8.533,3.413,8.533,8.533
		S319.853,365.933,314.733,365.933z"/>
	<path d="M365.933,365.933h-17.067c-5.12,0-8.533-3.413-8.533-8.533s3.413-8.533,8.533-8.533h17.067c5.12,0,8.533,3.413,8.533,8.533
		S371.053,365.933,365.933,365.933z"/>
	<path d="M195.267,417.133H127c-5.12,0-8.533-3.413-8.533-8.533c0-5.12,3.413-8.533,8.533-8.533h68.267
		c5.12,0,8.533,3.413,8.533,8.533C203.8,413.72,200.387,417.133,195.267,417.133z"/>
	<path d="M365.933,417.133H331.8c-5.12,0-8.533-3.413-8.533-8.533c0-5.12,3.413-8.533,8.533-8.533h34.133
		c5.12,0,8.533,3.413,8.533,8.533C374.467,413.72,371.053,417.133,365.933,417.133z"/>
	<path d="M297.667,417.133H229.4c-5.12,0-8.533-3.413-8.533-8.533c0-5.12,3.413-8.533,8.533-8.533h68.267
		c5.12,0,8.533,3.413,8.533,8.533C306.2,413.72,302.787,417.133,297.667,417.133z"/>
	<path d="M212.333,468.333H127c-5.12,0-8.533-3.413-8.533-8.533s3.413-8.533,8.533-8.533h85.333c5.12,0,8.533,3.413,8.533,8.533
		S217.453,468.333,212.333,468.333z"/>
	<path d="M272.067,468.333h-25.6c-5.12,0-8.533-3.413-8.533-8.533s3.413-8.533,8.533-8.533h25.6c5.12,0,8.533,3.413,8.533,8.533
		S277.187,468.333,272.067,468.333z"/>
	<path d="M365.933,468.333H306.2c-5.12,0-8.533-3.413-8.533-8.533s3.413-8.533,8.533-8.533h59.733c5.12,0,8.533,3.413,8.533,8.533
		S371.053,468.333,365.933,468.333z"/>
	<path d="M272.067,92.867h-51.2c-5.12,0-8.533-3.413-8.533-8.533v-51.2c0-5.12,3.413-8.533,8.533-8.533h51.2
		c5.12,0,8.533,3.413,8.533,8.533v51.2C280.6,89.453,277.187,92.867,272.067,92.867z M229.4,75.8h34.133V41.667H229.4V75.8z"/>
	<path d="M400.067,511h-307.2c-14.507,0-25.6-11.093-25.6-25.6V75.8c0-14.507,11.093-25.6,25.6-25.6h128
		c5.12,0,8.533,3.413,8.533,8.533V75.8h34.133V58.733c0-5.12,3.413-8.533,8.533-8.533h128c14.507,0,25.6,11.093,25.6,25.6v42.667
		c0,5.12-3.413,8.533-8.533,8.533s-8.533-3.413-8.533-8.533V75.8c0-5.12-3.413-8.533-8.533-8.533H280.6v17.067
		c0,5.12-3.413,8.533-8.533,8.533h-51.2c-5.12,0-8.533-3.413-8.533-8.533V67.267H92.867c-5.12,0-8.533,3.413-8.533,8.533v409.6
		c0,5.12,3.413,8.533,8.533,8.533h307.2c5.12,0,8.533-3.413,8.533-8.533V186.733c0-5.12,3.413-8.533,8.533-8.533
		s8.533,3.413,8.533,8.533V485.4C425.667,499.907,414.573,511,400.067,511z"/>
	<path d="M425.667,152.6c0-5.12-3.413-8.533-8.533-8.533s-8.533,3.413-8.533,8.533c0,5.12,3.413,8.533,8.533,8.533
		S425.667,157.72,425.667,152.6"/>
	<path d="M272.067,41.667h-51.2c-5.12,0-8.533-3.413-8.533-8.533C212.333,14.36,227.693-1,246.467-1S280.6,14.36,280.6,33.133
		C280.6,38.253,277.187,41.667,272.067,41.667z M231.96,24.6h29.867c-2.56-5.12-8.533-8.533-14.507-8.533
		C241.347,16.067,234.52,19.48,231.96,24.6z"/>
	<path d="M246.467,314.733c-16.213,0-31.573-3.413-46.933-11.093c-2.56-1.707-4.267-4.267-4.267-7.68v-49.493
		c0-28.16,23.04-51.2,51.2-51.2s51.2,23.04,51.2,51.2v49.493c0,3.413-1.707,5.973-4.267,7.68
		C278.04,311.32,262.68,314.733,246.467,314.733z M212.333,290.84c21.333,9.387,46.933,9.387,68.267,0v-44.373
		c0-18.773-15.36-34.133-34.133-34.133s-34.133,15.36-34.133,34.133V290.84z M289.133,295.96L289.133,295.96L289.133,295.96z"/>
</g>
</svg>