<?xml version="1.0" encoding="iso-8859-1"?>
<!-- Uploaded to: SVG Repo, www.svgrepo.com, Generator: SVG Repo Mixer Tools -->
<svg height="800px" width="800px" version="1.1" id="Layer_1" xmlns="http://www.w3.org/2000/svg" xmlns:xlink="http://www.w3.org/1999/xlink" 
	 viewBox="0 0 503.607 503.607" xml:space="preserve">
<g transform="translate(1)">
	<polygon style="fill:#FFDD09;" points="32.574,243.41 469.033,243.41 469.033,209.836 32.574,209.836 	"/>
	<polygon style="fill:#FFFFFF;" points="7.393,243.41 32.574,243.41 32.574,209.836 7.393,209.836 	"/>
	<polygon style="fill:#FD9808;" points="469.033,243.41 494.213,243.41 494.213,209.836 469.033,209.836 	"/>
	<polygon style="fill:#FFDD09;" points="40.967,495.213 158.475,495.213 158.475,243.41 40.967,243.41 	"/>
	<polygon style="fill:#FFFFFF;" points="24.18,495.213 40.967,495.213 40.967,243.41 24.18,243.41 	"/>
	<g>
		<polygon style="fill:#FD9808;" points="158.475,495.213 175.262,495.213 175.262,243.41 158.475,243.41 		"/>
		<polygon style="fill:#FD9808;" points="49.361,461.639 150.082,461.639 150.082,369.311 49.361,369.311 		"/>
	</g>
	<polygon style="fill:#FCC309;" points="49.361,461.639 133.295,461.639 133.295,369.311 49.361,369.311 	"/>
	<polygon style="fill:#FD9808;" points="49.361,335.738 150.082,335.738 150.082,268.59 49.361,268.59 	"/>
	<polygon style="fill:#FCC309;" points="49.361,335.738 133.295,335.738 133.295,268.59 49.361,268.59 	"/>
	<polygon style="fill:#FFDD09;" points="343.131,495.213 460.639,495.213 460.639,243.41 343.131,243.41 	"/>
	<polygon style="fill:#FFFFFF;" points="326.344,495.213 343.131,495.213 343.131,243.41 326.344,243.41 	"/>
	<polygon style="fill:#FD9808;" points="460.639,495.213 477.426,495.213 477.426,243.41 460.639,243.41 	"/>
	<polygon style="fill:#FFDD09;" points="477.426,495.213 494.213,495.213 494.213,243.41 477.426,243.41 	"/>
	<polygon style="fill:#FD9808;" points="351.525,461.639 452.246,461.639 452.246,369.311 351.525,369.311 	"/>
	<polygon style="fill:#FCC309;" points="351.525,461.639 435.459,461.639 435.459,369.311 351.525,369.311 	"/>
	<polygon style="fill:#FD9808;" points="351.525,335.738 452.246,335.738 452.246,268.59 351.525,268.59 	"/>
	<polygon style="fill:#FCC309;" points="351.525,335.738 435.459,335.738 435.459,268.59 351.525,268.59 	"/>
	<polygon style="fill:#54C9FD;" points="452.246,209.836 418.672,209.836 410.279,159.475 460.639,159.475 	"/>
	<g>
		<path style="fill:#1CD759;" d="M91.328,209.836H24.18v-14.269c0-5.875,5.036-10.911,10.911-10.911h44.485
			c5.875,0,10.911,5.036,10.911,10.911v14.269H91.328z"/>
		<polygon style="fill:#1CD759;" points="99.721,125.902 15.787,125.902 32.574,41.967 82.934,41.967 		"/>
	</g>
	<path d="M494.213,251.803H7.393c-5.036,0-8.393-3.357-8.393-8.393v-33.574c0-5.036,3.357-8.393,8.393-8.393h486.82
		c5.036,0,8.393,3.357,8.393,8.393v33.574C502.607,248.446,498.41,251.803,494.213,251.803z M15.787,235.016H485.82v-16.787H15.787
		V235.016z"/>
	<path style="fill:#FFDD09;" d="M334.738,159.475H166.869c-5.036,0-8.393-3.357-8.393-8.393V16.787c0-5.036,3.357-8.393,8.393-8.393
		h167.869c5.036,0,8.393,3.357,8.393,8.393v134.295C343.131,156.118,338.934,159.475,334.738,159.475"/>
	<path style="fill:#FD9808;" d="M359.918,8.393h-25.18c5.036,0,8.393,3.357,8.393,8.393v134.295c0,5.036-3.357,8.393-8.393,8.393
		h25.18c5.036,0,8.393-3.357,8.393-8.393V16.787C368.311,11.751,364.115,8.393,359.918,8.393"/>
	<path style="fill:#FFDD09;" d="M385.098,8.393h-25.18c5.036,0,8.393,3.357,8.393,8.393v134.295c0,5.036-3.357,8.393-8.393,8.393
		h25.18c5.036,0,8.393-3.357,8.393-8.393V16.787C393.492,11.751,389.295,8.393,385.098,8.393"/>
	<path style="fill:#FFFFFF;" d="M158.475,151.082V16.787c0-5.036,3.357-8.393,8.393-8.393h-25.18c-5.036,0-8.393,3.357-8.393,8.393
		v134.295c0,5.036,3.357,8.393,8.393,8.393h25.18C161.833,159.475,158.475,156.118,158.475,151.082"/>
	<g>
		<path style="fill:#FFDD09;" d="M292.77,209.836h-83.934v-14.269c0-5.875,5.036-10.911,10.911-10.911h61.272
			c5.875,0,10.911,5.036,10.911,10.911v14.269H292.77z"/>
		<polygon style="fill:#FFDD09;" points="234.016,184.656 267.59,184.656 267.59,159.475 234.016,159.475 		"/>
	</g>
	<path d="M359.918,167.869H141.689c-9.233,0-16.787-7.554-16.787-16.787V16.787C124.902,7.554,132.456,0,141.689,0H267.59
		c5.036,0,8.393,3.357,8.393,8.393s-3.357,8.393-8.393,8.393H141.689v134.295h218.229V16.787h-25.18
		c-5.036,0-8.393-3.357-8.393-8.393S329.702,0,334.738,0h25.18c9.233,0,16.787,7.554,16.787,16.787v134.295
		C376.705,160.315,369.151,167.869,359.918,167.869z"/>
	<path d="M309.557,8.393c0-5.036-3.357-8.393-8.393-8.393c-5.036,0-8.393,3.357-8.393,8.393s3.357,8.393,8.393,8.393
		C305.361,16.787,309.557,13.43,309.557,8.393"/>
	<path d="M292.77,218.229h-83.934c-5.036,0-8.393-3.357-8.393-8.393v-14.269c0-10.911,8.393-19.305,19.305-19.305h61.272
		c10.911,0,19.305,8.393,19.305,19.305v14.269C301.164,214.872,296.967,218.229,292.77,218.229z M217.229,201.443h67.148v-5.875
		c0-1.679-0.839-2.518-2.518-2.518h-61.272c-1.679,0-2.518,0.839-2.518,2.518v5.875H217.229z"/>
	<path d="M267.59,193.049h-33.574c-5.036,0-8.393-3.357-8.393-8.393v-25.18c0-5.036,3.357-8.393,8.393-8.393h33.574
		c5.036,0,8.393,3.357,8.393,8.393v25.18C275.984,189.692,271.787,193.049,267.59,193.049z M242.41,176.262h16.787v-8.393H242.41
		V176.262z"/>
	<path d="M158.475,58.754c-2.518,0-4.197-0.839-5.875-2.518c-3.357-3.357-3.357-8.393,0-11.751l16.787-16.787
		c3.357-3.357,8.393-3.357,11.751,0s3.357,8.393,0,11.751l-16.787,16.787C162.672,57.915,160.154,58.754,158.475,58.754z"/>
	<path d="M166.869,92.328c-2.518,0-4.197-0.839-5.875-2.518c-3.357-3.357-3.357-8.393,0-11.751l41.967-41.967
		c3.357-3.357,8.393-3.357,11.751,0c3.357,3.357,3.357,8.393,0,11.751L172.744,89.81C171.066,91.489,168.548,92.328,166.869,92.328z
		"/>
	<path d="M359.918,167.869H141.689c-9.233,0-16.787-7.554-16.787-16.787v-25.18c0-5.036,3.357-8.393,8.393-8.393h235.016
		c5.036,0,8.393,3.357,8.393,8.393v25.18C376.705,160.315,369.151,167.869,359.918,167.869z M141.689,134.295v16.787h218.229
		v-16.787H141.689z"/>
	<path d="M175.262,503.607H24.18c-5.036,0-8.393-3.357-8.393-8.393V243.41c0-5.036,3.357-8.393,8.393-8.393h151.082
		c5.036,0,8.393,3.357,8.393,8.393v251.803C183.656,500.249,179.459,503.607,175.262,503.607z M32.574,486.82h134.295V251.803
		H32.574V486.82z"/>
	<path d="M150.082,344.131H49.361c-5.036,0-8.393-3.357-8.393-8.393V268.59c0-5.036,3.357-8.393,8.393-8.393h100.721
		c5.036,0,8.393,3.357,8.393,8.393v67.148C158.475,340.774,154.279,344.131,150.082,344.131z M57.754,327.344h83.934v-50.361H57.754
		V327.344z"/>
	<path d="M150.082,470.033H49.361c-5.036,0-8.393-3.357-8.393-8.393v-92.328c0-5.036,3.357-8.393,8.393-8.393h100.721
		c5.036,0,8.393,3.357,8.393,8.393v92.328C158.475,466.675,154.279,470.033,150.082,470.033z M57.754,453.246h83.934v-75.541H57.754
		V453.246z"/>
	<path d="M108.115,310.557H91.328c-5.036,0-8.393-3.357-8.393-8.393c0-5.036,3.357-8.393,8.393-8.393h16.787
		c5.036,0,8.393,3.357,8.393,8.393C116.508,307.2,112.311,310.557,108.115,310.557z"/>
	<path d="M108.115,411.279H91.328c-5.036,0-8.393-3.357-8.393-8.393s3.357-8.393,8.393-8.393h16.787
		c5.036,0,8.393,3.357,8.393,8.393S112.311,411.279,108.115,411.279z"/>
	<path d="M477.426,503.607H326.344c-5.036,0-8.393-3.357-8.393-8.393V243.41c0-5.036,3.357-8.393,8.393-8.393h151.082
		c5.036,0,8.393,3.357,8.393,8.393v251.803C485.82,500.249,481.623,503.607,477.426,503.607z M334.738,486.82h134.295V251.803
		H334.738V486.82z"/>
	<path d="M452.246,344.131H351.525c-5.036,0-8.393-3.357-8.393-8.393V268.59c0-5.036,3.357-8.393,8.393-8.393h100.721
		c5.036,0,8.393,3.357,8.393,8.393v67.148C460.639,340.774,456.443,344.131,452.246,344.131z M359.918,327.344h83.934v-50.361
		h-83.934V327.344z"/>
	<path d="M452.246,470.033H351.525c-5.036,0-8.393-3.357-8.393-8.393v-92.328c0-5.036,3.357-8.393,8.393-8.393h100.721
		c5.036,0,8.393,3.357,8.393,8.393v92.328C460.639,466.675,456.443,470.033,452.246,470.033z M359.918,453.246h83.934v-75.541
		h-83.934V453.246z"/>
	<path d="M410.279,310.557h-16.787c-5.036,0-8.393-3.357-8.393-8.393c0-5.036,3.357-8.393,8.393-8.393h16.787
		c5.036,0,8.393,3.357,8.393,8.393C418.672,307.2,414.475,310.557,410.279,310.557z"/>
	<path d="M410.279,411.279h-16.787c-5.036,0-8.393-3.357-8.393-8.393s3.357-8.393,8.393-8.393h16.787
		c5.036,0,8.393,3.357,8.393,8.393S414.475,411.279,410.279,411.279z"/>
	<path d="M91.328,218.229H24.18c-5.036,0-8.393-3.357-8.393-8.393v-14.269c0-10.911,8.393-19.305,19.305-19.305h44.485
		c10.911,0,19.305,8.393,19.305,19.305v14.269C99.721,214.872,95.525,218.229,91.328,218.229z M32.574,201.443h50.361v-5.875
		c0-1.679-0.839-2.518-2.518-2.518H35.092c-1.679,0-2.518,0.839-2.518,2.518V201.443z"/>
	<path d="M57.754,184.656c-5.036,0-8.393-3.357-8.393-8.393v-50.361c0-5.036,3.357-8.393,8.393-8.393s8.393,3.357,8.393,8.393
		v50.361C66.148,181.298,61.951,184.656,57.754,184.656z"/>
	<path d="M99.721,134.295H15.787c-2.518,0-5.036-0.839-6.715-3.357c-1.679-1.679-2.518-4.197-1.679-6.715L24.18,40.289
		c0.839-4.197,4.197-6.715,8.393-6.715h50.361c4.197,0,7.554,2.518,8.393,6.715l16.787,83.934c0.839,2.518,0,5.036-1.679,6.715
		C104.757,133.456,102.239,134.295,99.721,134.295z M25.859,117.508h63.79L76.22,50.361H39.289L25.859,117.508z"/>
	<path d="M452.246,218.229h-33.574c-4.197,0-7.554-3.357-8.393-6.715l-8.393-50.361c0-2.518,0-5.036,1.679-6.715
		c1.679-1.679,4.197-3.357,6.715-3.357h50.361c2.518,0,5.036,0.839,6.715,3.357c1.679,1.679,2.518,4.197,1.679,6.715l-8.393,50.361
		C459.8,214.872,456.443,218.229,452.246,218.229z M425.387,201.443h19.305l5.875-33.574h-30.216L425.387,201.443z"/>
	<path d="M454.764,200.603c-3.357,0-6.715-2.518-7.554-5.875c-1.679-4.197,0.839-9.233,5.036-10.911l21.823-7.554
		c4.197-1.679,9.233,0.839,10.911,5.036c1.679,4.197-0.839,9.233-5.036,10.911l-21.823,7.554
		C456.443,200.603,455.603,200.603,454.764,200.603z"/>
</g>
</svg>