<?xml version="1.0" encoding="iso-8859-1"?>
<!-- Uploaded to: SVG Repo, www.svgrepo.com, Generator: SVG Repo Mixer Tools -->
<svg height="800px" width="800px" version="1.1" id="Layer_1" xmlns="http://www.w3.org/2000/svg" xmlns:xlink="http://www.w3.org/1999/xlink" 
	 viewBox="0 0 512 512" xml:space="preserve">
<g transform="translate(1 1)">
	<path style="fill:#FCC309;" d="M316.44,378.733V395.8H193.56v-17.067H33.133v25.6c0,9.387,6.827,17.067,15.36,17.067h413.013
		c8.533,0,15.36-7.68,15.36-17.067v-25.6H316.44z"/>
	<path style="fill:#FFFFFF;" d="M33.133,404.333v-25.6h-25.6v25.6c0,9.387,7.68,17.067,17.067,17.067h23.893
		C39.96,421.4,33.133,413.72,33.133,404.333"/>
	<path style="fill:#FD9808;" d="M476.867,378.733v25.6c0,9.387-6.827,17.067-15.36,17.067H485.4c9.387,0,17.067-7.68,17.067-17.067
		v-25.6H476.867z"/>
	<path style="fill:#FFDD09;" d="M186.733,378.733V395.8h136.533v-17.067h119.467V105.667c0-9.387-6.827-17.067-15.36-17.067H82.627
		c-8.533,0-15.36,7.68-15.36,17.067v273.067H186.733z"/>
	<path style="fill:#FFFFFF;" d="M82.627,88.6H58.733c-9.387,0-17.067,7.68-17.067,17.067v273.067h25.6V105.667
		C67.267,96.28,74.093,88.6,82.627,88.6"/>
	<path style="fill:#FD9808;" d="M451.267,88.6h-23.893c8.533,0,15.36,7.68,15.36,17.067v273.067h25.6V105.667
		C468.333,96.28,460.653,88.6,451.267,88.6"/>
	<path style="fill:#FFDD09;" d="M476.867,88.6h-23.893c8.533,0,15.36,7.68,15.36,17.067v273.067h25.6V105.667
		C493.933,96.28,486.253,88.6,476.867,88.6"/>
	<path d="M323.267,404.333H186.733c-5.12,0-8.533-3.413-8.533-8.533v-8.533H41.667c-5.12,0-8.533-3.413-8.533-8.533v-51.2
		c0-5.12,3.413-8.533,8.533-8.533s8.533,3.413,8.533,8.533V370.2h136.533c5.12,0,8.533,3.413,8.533,8.533v8.533h119.467v-8.533
		c0-5.12,3.413-8.533,8.533-8.533H459.8V105.667c0-5.12-3.413-8.533-8.533-8.533H58.733c-5.12,0-8.533,3.413-8.533,8.533v153.6
		c0,5.12-3.413,8.533-8.533,8.533s-8.533-3.413-8.533-8.533v-153.6c0-14.507,11.093-25.6,25.6-25.6h392.533
		c14.507,0,25.6,11.093,25.6,25.6v273.067c0,5.12-3.413,8.533-8.533,8.533H331.8v8.533
		C331.8,400.92,328.387,404.333,323.267,404.333z"/>
	<path d="M50.2,293.4c0-5.12-3.413-8.533-8.533-8.533s-8.533,3.413-8.533,8.533c0,5.12,3.413,8.533,8.533,8.533
		S50.2,298.52,50.2,293.4"/>
	<polygon style="fill:#15A143;" points="84.333,242.2 203.8,242.2 203.8,122.733 84.333,122.733 	"/>
	<polygon style="fill:#1CD759;" points="84.333,242.2 178.2,242.2 178.2,122.733 84.333,122.733 	"/>
	<path d="M425.667,344.6h-128c-5.12,0-8.533-3.413-8.533-8.533s3.413-8.533,8.533-8.533h128c5.12,0,8.533,3.413,8.533,8.533
		S430.787,344.6,425.667,344.6z"/>
	<path d="M169.667,293.4H84.333c-5.12,0-8.533-3.413-8.533-8.533c0-5.12,3.413-8.533,8.533-8.533h85.333
		c5.12,0,8.533,3.413,8.533,8.533C178.2,289.987,174.787,293.4,169.667,293.4z"/>
	<path d="M383,293.4H255c-5.12,0-8.533-3.413-8.533-8.533c0-5.12,3.413-8.533,8.533-8.533h128c5.12,0,8.533,3.413,8.533,8.533
		C391.533,289.987,388.12,293.4,383,293.4z"/>
	<path d="M255,344.6H127c-5.12,0-8.533-3.413-8.533-8.533s3.413-8.533,8.533-8.533h128c5.12,0,8.533,3.413,8.533,8.533
		S260.12,344.6,255,344.6z"/>
	<path d="M425.667,191h-128c-5.12,0-8.533-3.413-8.533-8.533c0-5.12,3.413-8.533,8.533-8.533h128c5.12,0,8.533,3.413,8.533,8.533
		C434.2,187.587,430.787,191,425.667,191z"/>
	<path d="M425.667,242.2h-85.333c-5.12,0-8.533-3.413-8.533-8.533c0-5.12,3.413-8.533,8.533-8.533h85.333
		c5.12,0,8.533,3.413,8.533,8.533C434.2,238.787,430.787,242.2,425.667,242.2z"/>
	<path d="M272.067,242.2H255c-5.12,0-8.533-3.413-8.533-8.533c0-5.12,3.413-8.533,8.533-8.533h17.067
		c5.12,0,8.533,3.413,8.533,8.533C280.6,238.787,277.187,242.2,272.067,242.2z"/>
	<path d="M383,139.8H255c-5.12,0-8.533-3.413-8.533-8.533c0-5.12,3.413-8.533,8.533-8.533h128c5.12,0,8.533,3.413,8.533,8.533
		C391.533,136.387,388.12,139.8,383,139.8z"/>
	<path d="M212.333,250.733H75.8V114.2h136.533V250.733z M92.867,233.667h102.4v-102.4h-102.4V233.667z"/>
	<path d="M485.4,429.933H24.6c-14.507,0-25.6-11.093-25.6-25.6v-25.6c0-5.12,3.413-8.533,8.533-8.533h179.2
		c5.12,0,8.533,3.413,8.533,8.533v8.533h119.467v-8.533c0-5.12,3.413-8.533,8.533-8.533h179.2c5.12,0,8.533,3.413,8.533,8.533v25.6
		C511,418.84,499.907,429.933,485.4,429.933z M16.067,387.267v17.067c0,5.12,3.413,8.533,8.533,8.533h460.8
		c5.12,0,8.533-3.413,8.533-8.533v-17.067H331.8v8.533c0,5.12-3.413,8.533-8.533,8.533H186.733c-5.12,0-8.533-3.413-8.533-8.533
		v-8.533H16.067z"/>
</g>
</svg>